<svg width="960" height="960" viewBox="0 0 960 960" fill="none" xmlns="http://www.w3.org/2000/svg">
  <rect width="960" height="960" rx="56" fill="#080611"/>
  <rect x="90" y="90" width="780" height="780" rx="48" fill="url(#bg)"/>
  <rect x="220" y="170" width="520" height="620" rx="44" fill="#0F0A1A" stroke="#7450FF" stroke-opacity="0.35" stroke-width="2"/>
  <rect x="250" y="210" width="460" height="520" rx="32" fill="#11111A"/>
  <rect x="280" y="250" width="140" height="24" rx="12" fill="#9B8BFF" fill-opacity="0.6"/>
  <rect x="280" y="292" width="240" height="18" rx="9" fill="#E7E2FF" fill-opacity="0.32"/>
  <rect x="280" y="330" width="280" height="180" rx="24" fill="url(#panel)"/>
  <rect x="280" y="536" width="120" height="110" rx="22" fill="#151225"/>
  <rect x="420" y="536" width="140" height="110" rx="22" fill="#151225"/>
  <rect x="580" y="536" width="100" height="110" rx="22" fill="#151225"/>
  <circle cx="640" cy="300" r="88" fill="url(#ring)"/>
  <circle cx="640" cy="300" r="56" fill="#0C0A14"/>
  <path d="M300 700H660" stroke="#7450FF" stroke-opacity="0.45" stroke-width="10" stroke-linecap="round"/>
  <rect x="602" y="126" width="126" height="64" rx="22" fill="#130F21" stroke="#7450FF" stroke-opacity="0.35"/>
  <rect x="626" y="145" width="44" height="10" rx="5" fill="#C3B9FF"/>
  <rect x="620" y="170" width="56" height="8" rx="4" fill="#6C53CC"/>
  <rect x="144" y="338" width="138" height="220" rx="30" fill="#181124" stroke="#7450FF" stroke-opacity="0.25"/>
  <rect x="162" y="372" width="102" height="152" rx="20" fill="url(#screen)"/>
  <rect x="184" y="398" width="58" height="8" rx="4" fill="#FFFFFF" fill-opacity="0.8"/>
  <rect x="184" y="422" width="40" height="8" rx="4" fill="#FFFFFF" fill-opacity="0.45"/>
  <defs>
    <linearGradient id="bg" x1="90" y1="90" x2="870" y2="870" gradientUnits="userSpaceOnUse">
      <stop stop-color="#25184A"/>
      <stop offset="1" stop-color="#09060F"/>
    </linearGradient>
    <linearGradient id="panel" x1="280" y1="330" x2="560" y2="510" gradientUnits="userSpaceOnUse">
      <stop stop-color="#5F3DFF"/>
      <stop offset="1" stop-color="#A17AFF"/>
    </linearGradient>
    <linearGradient id="screen" x1="162" y1="372" x2="264" y2="524" gradientUnits="userSpaceOnUse">
      <stop stop-color="#8B72FF"/>
      <stop offset="1" stop-color="#22163D"/>
    </linearGradient>
    <linearGradient id="ring" x1="552" y1="212" x2="728" y2="388" gradientUnits="userSpaceOnUse">
      <stop stop-color="#9F84FF"/>
      <stop offset="1" stop-color="#3B257F"/>
    </linearGradient>
  </defs>
</svg>
